<svg width="170" height="49" viewBox="0 0 170 49" fill="none" xmlns="http://www.w3.org/2000/svg">
<g filter="url(#filter0_d)">
<path d="M148.757 31.4628V30.1836C152.339 30.9511 156.219 30.5034 157.712 30.1836V31.143L158.032 31.7826L157.712 32.742L158.032 33.3816L157.392 34.0213L158.032 34.6609L157.392 35.3005L158.032 35.9401L156.752 37.2193C156.539 37.5391 156.241 37.6031 155.473 37.8589C154.706 38.1148 151.955 37.9655 150.676 37.8589L149.397 36.5797L148.438 35.3005L148.757 34.6609L148.438 34.0213L148.757 33.3816L148.438 32.742L149.077 32.1024L148.757 31.4628Z" fill="#E2BE74" stroke="#2C2727" stroke-opacity="0.11" stroke-width="0.1"/>
<path d="M147.653 27.5456C147.653 28.2216 147.933 28.954 148.073 29.2357C148.137 29.3748 148.389 29.857 148.507 30.0807C148.625 30.3044 150.611 30.5032 150.611 30.5032H153.978C153.978 30.5032 156.643 30.2215 157.345 30.0807C158.046 29.9399 157.765 29.6582 157.765 29.6582L158.186 28.8132C158.327 28.5315 158.607 27.5456 158.607 25.8556C158.607 23.743 159.028 23.3205 159.028 22.898C159.028 22.56 161.272 19.0954 162.395 17.4054C164.499 14.4478 162.956 9.92106 162.395 8.95517C159.449 3.88504 155.661 3.46251 153.136 3.04C151.116 2.70199 147.806 4.58921 146.403 5.57506C145.421 6.13841 143.373 8.27913 143.036 12.3352C142.616 17.4054 145.969 21.6305 146.811 22.4755C147.484 23.1515 147.653 24.4472 147.653 25.0106V27.5456Z" fill="url(#paint0_radial)" stroke="#2C2727" stroke-opacity="0.27" stroke-width="0.2"/>
<ellipse cx="153.234" cy="30.1833" rx="4.47727" ry="0.319805" fill="#807F7F"/>
<path d="M152.594 27.945V29.8638H153.553V27.945M152.594 27.945H153.553M152.594 27.945V26.9855L153.234 26.6657M153.553 27.945V27.3053H154.833V29.8638M151.635 27.945V29.544V25.7063M151.635 25.7063H152.594V18.031M151.635 25.7063L149.076 18.3508" stroke="#141313" stroke-opacity="0.76" stroke-width="0.2"/>
</g>
<path d="M20.584 10.199L24.242 10.106C24.428 10.106 24.521 10.2817 24.521 10.633C24.521 10.9637 24.428 11.129 24.242 11.129H22.785C22.3717 11.129 22.103 11.222 21.979 11.408C21.5037 12.1107 21.2453 18.7653 21.204 31.372C21.1627 31.5167 20.9973 31.589 20.708 31.589C20.4187 31.589 20.2017 31.5167 20.057 31.372C14.0223 24.2007 9.269 18.507 5.797 14.291H5.673C5.75567 21.8137 5.81767 26.3087 5.859 27.776C5.90033 29.2433 6.11733 29.977 6.51 29.977H8.215C8.401 29.977 8.494 30.1527 8.494 30.504C8.494 30.8347 8.401 31 8.215 31L4.929 30.969L1.24 31.062C1.09533 31.062 1.023 30.8863 1.023 30.535C1.023 30.1837 1.09533 30.008 1.24 30.008H2.263C2.73833 30.008 3.07933 29.9563 3.286 29.853C3.49267 29.729 3.60633 29.5017 3.627 29.171C4.04033 24.521 4.247 18.9617 4.247 12.493L4.03 12.245C3.61667 11.7697 3.24467 11.47 2.914 11.346C2.604 11.2013 2.015 11.129 1.147 11.129C1.023 11.129 0.961 10.9637 0.961 10.633C0.961 10.3023 1.023 10.137 1.147 10.137L6.758 10.199C14.1153 19.4163 18.3933 24.831 19.592 26.443H19.716C19.592 18.2383 19.4887 13.64 19.406 12.648C19.3233 11.656 19.0857 11.16 18.693 11.16H17.205C17.019 11.16 16.926 10.9947 16.926 10.664C16.926 10.3127 17.019 10.137 17.205 10.137L20.584 10.199ZM24.4687 16.027L26.9177 16.089C27.145 16.089 27.3414 16.089 27.5067 16.089L30.7307 16.027C30.8754 16.027 30.9477 16.182 30.9477 16.492C30.9477 16.7813 30.865 16.926 30.6997 16.926H29.2737C29.005 16.926 28.8707 17.0913 28.8707 17.422V27.683C28.8707 29.2537 29.0774 30.039 29.4907 30.039H31.0407C31.206 30.039 31.2887 30.2043 31.2887 30.535C31.2887 30.845 31.2267 31 31.1027 31L27.5067 30.969L24.4067 31.062C24.262 31.062 24.1897 30.907 24.1897 30.597C24.1897 30.287 24.2517 30.132 24.3757 30.132H25.7707C25.998 30.132 26.1324 30.0907 26.1737 30.008C26.215 29.9047 26.2357 29.6463 26.2357 29.233V19.468C26.2357 17.8147 26.029 16.988 25.6157 16.988H24.4997C24.2517 16.988 24.1277 16.833 24.1277 16.523C24.1277 16.1923 24.2414 16.027 24.4687 16.027ZM39.5034 31.403C36.9821 31.403 34.8948 30.7313 33.2414 29.388C31.5881 28.0447 30.7614 26.2053 30.7614 23.87C30.7614 21.514 31.6501 19.561 33.4274 18.011C35.2048 16.461 37.3231 15.686 39.7824 15.686C40.9811 15.686 42.1591 15.9857 43.3164 16.585V16.058C43.3164 15.9133 43.4404 15.841 43.6884 15.841C43.9571 15.841 44.0914 15.9133 44.0914 16.058C44.0914 17.36 44.1948 18.7137 44.4014 20.119C44.4221 20.181 44.3808 20.243 44.2774 20.305C44.1948 20.3463 44.0604 20.367 43.8744 20.367C43.6884 20.367 43.5748 20.2843 43.5334 20.119L43.2854 18.476C42.1281 17.3807 40.7951 16.833 39.2864 16.833C37.7984 16.833 36.5171 17.4737 35.4424 18.755C34.3884 20.0363 33.8614 21.638 33.8614 23.56C33.8614 25.482 34.4194 27.0837 35.5354 28.365C36.6514 29.6257 37.9638 30.256 39.4724 30.256C40.9811 30.256 42.4071 29.8117 43.7504 28.923L43.9054 27.156C43.9054 26.9907 44.0501 26.908 44.3394 26.908C44.6288 26.908 44.7734 26.9803 44.7734 27.125L44.5874 31.062C44.5874 31.186 44.4428 31.248 44.1534 31.248C43.8848 31.248 43.7504 31.186 43.7504 31.062V30.535C42.3244 31.1137 40.9088 31.403 39.5034 31.403ZM44.8476 16.027L47.2966 16.089C47.5239 16.089 47.7202 16.089 47.8856 16.089L51.1096 16.027C51.2542 16.027 51.3266 16.182 51.3266 16.492C51.3266 16.7813 51.2439 16.926 51.0786 16.926H49.6526C49.3839 16.926 49.2496 17.0913 49.2496 17.422V27.683C49.2496 29.2537 49.4562 30.039 49.8696 30.039H51.4196C51.5849 30.039 51.6676 30.2043 51.6676 30.535C51.6676 30.845 51.6056 31 51.4816 31L47.8856 30.969L44.7856 31.062C44.6409 31.062 44.5686 30.907 44.5686 30.597C44.5686 30.287 44.6306 30.132 44.7546 30.132H46.1496C46.3769 30.132 46.5112 30.0907 46.5526 30.008C46.5939 29.9047 46.6146 29.6463 46.6146 29.233V19.468C46.6146 17.8147 46.4079 16.988 45.9946 16.988H44.8786C44.6306 16.988 44.5066 16.833 44.5066 16.523C44.5066 16.1923 44.6202 16.027 44.8476 16.027ZM58.4256 30.969L54.5816 31.031C54.4576 31.031 54.3956 30.907 54.3956 30.659C54.3956 30.3903 54.4576 30.256 54.5816 30.256H54.9536C55.3049 30.256 55.4806 30.1527 55.4806 29.946C55.4806 29.822 55.3772 29.6463 55.1706 29.419C54.3439 28.4477 52.6286 26.5773 50.0246 23.808H49.1876V22.878H49.8696C53.2796 19.6127 54.9846 17.6907 54.9846 17.112C54.9846 16.8847 54.8606 16.771 54.6126 16.771H53.9926C53.8892 16.771 53.8376 16.647 53.8376 16.399C53.8376 16.151 53.8892 16.027 53.9926 16.027L56.6896 16.058L59.0766 16.027C59.2006 16.027 59.2626 16.151 59.2626 16.399C59.2626 16.647 59.2006 16.771 59.0766 16.771H58.3016C58.0949 16.771 57.4852 17.2773 56.4726 18.29C54.1579 20.5013 52.6389 21.8963 51.9156 22.475V22.63L56.7206 27.621C58.3739 29.2743 59.3452 30.101 59.6346 30.101H60.4406C60.6472 30.1423 60.7506 30.3077 60.7506 30.597C60.7506 30.8657 60.6679 31 60.5026 31L58.4256 30.969ZM80.5332 30.969L76.5962 31.062C76.4102 31.062 76.3172 30.8863 76.3172 30.535C76.3172 30.1837 76.4102 30.008 76.5962 30.008H78.3632C78.7972 30.008 79.0142 29.8323 79.0142 29.481C79.0142 29.3363 78.6215 28.1067 77.8362 25.792C77.0508 23.4567 76.5652 21.9997 76.3792 21.421H70.7682C69.3008 26.0917 68.5672 28.7887 68.5672 29.512C68.5672 29.822 68.6292 29.977 68.7532 29.977H70.9852C71.2125 29.977 71.3262 30.1527 71.3262 30.504C71.3262 30.8347 71.1918 31 70.9232 31L66.9242 30.969L63.4832 31.062C63.2972 31.062 63.2042 30.8863 63.2042 30.535C63.2042 30.1837 63.2972 30.008 63.4832 30.008H65.0332C65.4878 30.008 65.8288 29.7807 66.0562 29.326C66.9242 27.4453 68.0195 24.645 69.3422 20.925C70.6855 17.205 71.5948 14.7457 72.0702 13.547C72.5662 12.3277 72.8142 11.656 72.8142 11.532C72.8142 11.3873 72.7728 11.2323 72.6902 11.067C72.6075 10.9017 72.5662 10.7983 72.5662 10.757C72.5662 10.5917 72.7108 10.509 73.0002 10.509C73.3102 10.509 73.5892 10.4367 73.8372 10.292C74.1058 10.1473 74.2815 9.982 74.3642 9.796C74.5915 9.34133 74.7982 9.114 74.9842 9.114C75.0668 9.114 75.2115 9.424 75.4182 10.044L81.6492 26.877C82.4345 28.9437 82.9822 29.977 83.2922 29.977H84.4082C84.6148 29.977 84.7182 30.1527 84.7182 30.504C84.7182 30.8347 84.6355 31 84.4702 31L80.5332 30.969ZM73.5892 13.361C72.9485 15.0143 72.1425 17.2877 71.1712 20.181H75.9452C74.5605 15.9857 73.8165 13.7123 73.7132 13.361H73.5892ZM91.8256 31.403C89.3043 31.403 87.217 30.7313 85.5636 29.388C83.9103 28.0447 83.0836 26.2053 83.0836 23.87C83.0836 21.514 83.9723 19.561 85.7496 18.011C87.527 16.461 89.6453 15.686 92.1046 15.686C93.3033 15.686 94.4813 15.9857 95.6386 16.585V16.058C95.6386 15.9133 95.7626 15.841 96.0106 15.841C96.2793 15.841 96.4136 15.9133 96.4136 16.058C96.4136 17.36 96.517 18.7137 96.7236 20.119C96.7443 20.181 96.703 20.243 96.5996 20.305C96.517 20.3463 96.3826 20.367 96.1966 20.367C96.0106 20.367 95.897 20.2843 95.8556 20.119L95.6076 18.476C94.4503 17.3807 93.1173 16.833 91.6086 16.833C90.1206 16.833 88.8393 17.4737 87.7646 18.755C86.7106 20.0363 86.1836 21.638 86.1836 23.56C86.1836 25.482 86.7416 27.0837 87.8576 28.365C88.9736 29.6257 90.286 30.256 91.7946 30.256C93.3033 30.256 94.7293 29.8117 96.0726 28.923L96.2276 27.156C96.2276 26.9907 96.3723 26.908 96.6616 26.908C96.951 26.908 97.0956 26.9803 97.0956 27.125L96.9096 31.062C96.9096 31.186 96.765 31.248 96.4756 31.248C96.207 31.248 96.0726 31.186 96.0726 31.062V30.535C94.6466 31.1137 93.231 31.403 91.8256 31.403ZM107.307 16.027L109.756 16.089C109.983 16.089 110.179 16.089 110.345 16.089L113.569 16.027C113.713 16.027 113.786 16.182 113.786 16.492C113.786 16.7813 113.703 16.926 113.538 16.926H112.112C111.843 16.926 111.709 17.0913 111.709 17.422V27.683C111.709 29.2537 111.915 30.039 112.329 30.039H113.879C114.044 30.039 114.127 30.2043 114.127 30.535C114.127 30.845 114.065 31 113.941 31L110.345 30.969L107.245 31.062C107.1 31.062 107.028 30.907 107.028 30.597C107.028 30.287 107.09 30.132 107.214 30.132H108.609C108.836 30.132 108.97 30.0907 109.012 30.008C109.053 29.9047 109.074 29.6463 109.074 29.233V24.18H101.572V27.683C101.572 29.2537 101.778 30.039 102.192 30.039H103.742C103.907 30.039 103.99 30.2043 103.99 30.535C103.99 30.845 103.928 31 103.804 31L100.208 30.969L97.1077 31.062C96.9631 31.062 96.8907 30.907 96.8907 30.597C96.8907 30.287 96.9527 30.132 97.0767 30.132H98.4717C98.6991 30.132 98.8334 30.0907 98.8747 30.008C98.9161 29.9047 98.9367 29.6463 98.9367 29.233V19.468C98.9367 17.8147 98.7301 16.988 98.3167 16.988H97.2007C96.9527 16.988 96.8287 16.833 96.8287 16.523C96.8287 16.1923 96.9424 16.027 97.1697 16.027L99.6187 16.089C99.8461 16.089 100.042 16.089 100.208 16.089L103.432 16.027C103.576 16.027 103.649 16.182 103.649 16.492C103.649 16.7813 103.566 16.926 103.401 16.926H101.975C101.706 16.926 101.572 17.0913 101.572 17.422V23.002H109.074V19.468C109.074 17.8147 108.867 16.988 108.454 16.988H107.338C107.09 16.988 106.966 16.833 106.966 16.523C106.966 16.1923 107.079 16.027 107.307 16.027ZM114.337 16.027L117.499 16.089H123.916V15.593C123.916 15.469 124.051 15.407 124.319 15.407C124.609 15.407 124.753 15.469 124.753 15.593C124.753 17.2257 124.826 18.3933 124.97 19.096C125.012 19.22 124.898 19.282 124.629 19.282C124.278 19.282 124.102 19.22 124.102 19.096C123.813 18.1453 123.534 17.608 123.265 17.484C122.397 17.174 121.137 17.019 119.483 17.019C119.194 17.0397 118.998 17.1223 118.894 17.267C118.791 17.4117 118.739 17.67 118.739 18.042V23.126C121.24 23.0433 122.614 22.9297 122.862 22.785L123.079 21.483C123.121 21.3797 123.265 21.328 123.513 21.328C123.782 21.328 123.916 21.4003 123.916 21.545C123.834 22.1443 123.792 22.816 123.792 23.56C123.792 24.2833 123.834 24.9447 123.916 25.544C123.916 25.668 123.772 25.73 123.482 25.73C123.214 25.73 123.079 25.6887 123.079 25.606L122.831 24.273C122.583 24.1283 121.219 24.0147 118.739 23.932V27.683C118.739 29.233 118.946 30.008 119.359 30.008H120.351C122.625 29.9667 124.195 29.6463 125.063 29.047L125.218 27.838C125.26 27.714 125.363 27.652 125.528 27.652C125.714 27.652 125.838 27.652 125.9 27.652C126.024 27.6933 126.086 27.7553 126.086 27.838C125.962 28.706 125.9 29.9253 125.9 31.496C125.9 31.5993 125.756 31.651 125.466 31.651C125.198 31.651 125.063 31.5993 125.063 31.496V31H119.545L114.275 31.062C114.131 31.062 114.058 30.907 114.058 30.597C114.058 30.287 114.12 30.132 114.244 30.132H115.639C115.867 30.132 116.001 30.0907 116.042 30.008C116.084 29.9047 116.104 29.6463 116.104 29.233V19.468C116.104 17.8147 115.898 16.988 115.484 16.988H114.368C114.12 16.988 113.996 16.833 113.996 16.523C113.996 16.1923 114.11 16.027 114.337 16.027ZM126.328 16.027L129.49 16.089H135.907V15.593C135.907 15.469 136.041 15.407 136.31 15.407C136.599 15.407 136.744 15.469 136.744 15.593C136.744 17.2257 136.816 18.3933 136.961 19.096C137.002 19.22 136.889 19.282 136.62 19.282C136.269 19.282 136.093 19.22 136.093 19.096C135.804 18.1453 135.525 17.608 135.256 17.484C134.388 17.174 133.127 17.019 131.474 17.019C131.185 17.0397 130.988 17.1223 130.885 17.267C130.782 17.4117 130.73 17.67 130.73 18.042V23.126C133.231 23.0433 134.605 22.9297 134.853 22.785L135.07 21.483C135.111 21.3797 135.256 21.328 135.504 21.328C135.773 21.328 135.907 21.4003 135.907 21.545C135.824 22.1443 135.783 22.816 135.783 23.56C135.783 24.2833 135.824 24.9447 135.907 25.544C135.907 25.668 135.762 25.73 135.473 25.73C135.204 25.73 135.07 25.6887 135.07 25.606L134.822 24.273C134.574 24.1283 133.21 24.0147 130.73 23.932V27.683C130.73 29.233 130.937 30.008 131.35 30.008H132.342C134.615 29.9667 136.186 29.6463 137.054 29.047L137.209 27.838C137.25 27.714 137.354 27.652 137.519 27.652C137.705 27.652 137.829 27.652 137.891 27.652C138.015 27.6933 138.077 27.7553 138.077 27.838C137.953 28.706 137.891 29.9253 137.891 31.496C137.891 31.5993 137.746 31.651 137.457 31.651C137.188 31.651 137.054 31.5993 137.054 31.496V31H131.536L126.266 31.062C126.121 31.062 126.049 30.907 126.049 30.597C126.049 30.287 126.111 30.132 126.235 30.132H127.63C127.857 30.132 127.992 30.0907 128.033 30.008C128.074 29.9047 128.095 29.6463 128.095 29.233V19.468C128.095 17.8147 127.888 16.988 127.475 16.988H126.359C126.111 16.988 125.987 16.833 125.987 16.523C125.987 16.1923 126.101 16.027 126.328 16.027Z" fill="#183148"/>
<defs>
<filter id="filter0_d" x="136.9" y="0.900146" width="32.6675" height="47.1501" filterUnits="userSpaceOnUse" color-interpolation-filters="sRGB">
<feFlood flood-opacity="0" result="BackgroundImageFix"/>
<feColorMatrix in="SourceAlpha" type="matrix" values="0 0 0 0 0 0 0 0 0 0 0 0 0 0 0 0 0 0 127 0" result="hardAlpha"/>
<feOffset dy="4"/>
<feGaussianBlur stdDeviation="3"/>
<feComposite in2="hardAlpha" operator="out"/>
<feColorMatrix type="matrix" values="0 0 0 0 0.607753 0 0 0 0 0.6125 0 0 0 0 0.375156 0 0 0 0.25 0"/>
<feBlend mode="normal" in2="BackgroundImageFix" result="effect1_dropShadow"/>
<feBlend mode="normal" in="SourceGraphic" in2="effect1_dropShadow" result="shape"/>
</filter>
<radialGradient id="paint0_radial" cx="0" cy="0" r="1" gradientUnits="userSpaceOnUse" gradientTransform="translate(154.783 11.8727) rotate(98.9842) scale(26.9488 18.3599)">
<stop offset="0.15625" stop-color="white"/>
<stop offset="0.540293" stop-color="#FFFBE3" stop-opacity="0.71"/>
<stop offset="0.984076" stop-color="white" stop-opacity="0.61"/>
</radialGradient>
</defs>
</svg>

